# xmcd
# 
# Track frame offsets:
#   150
#   13747
#   30430
#   45559
#   60459
#   74560
#   87242
#   102260
#   117816
#   131494
#   141596
#   154629
#   164159
#   176545
#   189323
# 
# Disc length: 2689 seconds
# 
# Revision: 0
# Processed by: cddbd v1.5.2PL0 Copyright (c) Steve Scherf et al.
# Submitted via: VOLTOCDX V1.0.24 
# 
DISCID=cb0a7f0f
DTITLE=Various Artist - Chartbuster Essential Vol. 1 Disc 1
DYEAR=2007
DGENRE=Karaoke
TTITLE0=Lovesick Blues - Hank Williams
TTITLE1=Tennessee Waltz, The - Pee Wee King
TTITLE2=Happy Trails - Roy Rogers
TTITLE3=If You've Got The Money, I've Got The Time - Lefty Frizzell
TTITLE4=Hey Good Lookin - Hank Williams
TTITLE5=It Wasnt God Who Made Honky Tonk Angels - Kitty Wells
TTITLE6=Jambalaya On The Bayou - Hank Williams
TTITLE7=Kaw-Liga - Hank Williams
TTITLE8=Your Cheatin Heart - Hank Williams
TTITLE9=Sixteen Tons - Tennessee Ernie Ford
TTITLE10=Crazy - Patsy Cline
TTITLE11=Walkin After Midnight - Patsy Cline
TTITLE12=Young Love - Sonny James
TTITLE13=White Sport Coat And A Pink Carnation - Marty Robbins
TTITLE14=Battle Of New Orleans, The - Johnny Horton
EXTD=
EXTT0=
EXTT1=
EXTT2=
EXTT3=
EXTT4=
EXTT5=
EXTT6=
EXTT7=
EXTT8=
EXTT9=
EXTT10=
EXTT11=
EXTT12=
EXTT13=
EXTT14=
PLAYORDER=
